<svg xmlns="http://www.w3.org/2000/svg" width="50" height="40" viewBox="0 0 97.511 84.414">
  <g id="leaderboard-svgrepo-com" transform="translate(29.743 -43.395)">
    <path id="Path_20" data-name="Path 20" d="M42.132,87.414H9V12.332C9,9.939,10.483,8,12.313,8H38.819c1.83,0,3.313,1.939,3.313,4.332V87.414Z" transform="translate(-6.836 37.895)" fill="none" stroke="#a862ea" stroke-linecap="round" stroke-linejoin="round" stroke-width="5"/>
    <path id="Path_22" data-name="Path 22" d="M41.975,64.368H15V21.149c0-3.673,1.342-6.649,3-6.649H41.975c1.655,0,3,2.977,3,6.649v36.57C44.972,61.392,43.63,64.368,41.975,64.368Z" transform="translate(20.296 60.941)" fill="none" stroke="#a862ea" stroke-linecap="round" stroke-linejoin="round" stroke-width="5"/>
    <path id="Path_23" data-name="Path 23" d="M32.407,72.481V18.037c0-3.058-1.317-5.537-2.941-5.537H5.941C4.317,12.5,3,14.979,3,18.037V66.944C3,70,4.317,72.481,5.941,72.481Z" transform="translate(-30.243 52.828)" fill="none" stroke="#a862ea" stroke-linecap="round" stroke-linejoin="round" stroke-width="5"/>
  </g>
</svg>
